<svg width="48" height="55" viewBox="0 0 48 55" fill="none" xmlns="http://www.w3.org/2000/svg">
<path d="M40.8 54.4H10.2C4.56875 54.4 0 49.8313 0 44.2V10.2C0 4.56875 4.56875 0 10.2 0H42.5C45.3156 0 47.6 2.28437 47.6 5.1V35.7C47.6 37.9206 46.1762 39.8119 44.2 40.5131V47.6C46.0806 47.6 47.6 49.1194 47.6 51C47.6 52.8806 46.0806 54.4 44.2 54.4H40.8ZM10.2 40.8C8.31938 40.8 6.8 42.3194 6.8 44.2C6.8 46.0806 8.31938 47.6 10.2 47.6H37.4V40.8H10.2ZM13.6 16.15C13.6 17.5631 14.7369 18.7 16.15 18.7H34.85C36.2631 18.7 37.4 17.5631 37.4 16.15C37.4 14.7369 36.2631 13.6 34.85 13.6H16.15C14.7369 13.6 13.6 14.7369 13.6 16.15ZM16.15 23.8C14.7369 23.8 13.6 24.9369 13.6 26.35C13.6 27.7631 14.7369 28.9 16.15 28.9H34.85C36.2631 28.9 37.4 27.7631 37.4 26.35C37.4 24.9369 36.2631 23.8 34.85 23.8H16.15Z" fill="url(#paint0_linear_143_169)"/>
<defs>
<linearGradient id="paint0_linear_143_169" x1="47.6" y1="27.0345" x2="1.04999e-06" y2="27.0345" gradientUnits="userSpaceOnUse">
<stop stop-color="#3B82F6"/>
<stop offset="1" stop-color="#234C90"/>
</linearGradient>
</defs>
</svg>
