<svg width="68" height="68" viewBox="0 0 68 68" fill="none" xmlns="http://www.w3.org/2000/svg">
<path d="M28.0498 11.8998H39.9498C40.4173 11.8998 40.7998 12.2823 40.7998 12.7498V16.9998H27.1998V12.7498C27.1998 12.2823 27.5823 11.8998 28.0498 11.8998ZM22.0998 12.7498V16.9998H13.5998C9.84918 16.9998 6.7998 20.0492 6.7998 23.7998V33.9998H61.1998V23.7998C61.1998 20.0492 58.1504 16.9998 54.3998 16.9998H45.8998V12.7498C45.8998 9.46668 43.2329 6.7998 39.9498 6.7998H28.0498C24.7667 6.7998 22.0998 9.46668 22.0998 12.7498ZM61.1998 39.0998H40.7998V40.7998C40.7998 42.6804 39.2804 44.1998 37.3998 44.1998H30.5998C28.7192 44.1998 27.1998 42.6804 27.1998 40.7998V39.0998H6.7998V50.9998C6.7998 54.7504 9.84918 57.7998 13.5998 57.7998H54.3998C58.1504 57.7998 61.1998 54.7504 61.1998 50.9998V39.0998Z" fill="url(#paint0_linear_143_172)"/>
<defs>
<linearGradient id="paint0_linear_143_172" x1="61.1998" y1="32.1446" x2="6.79981" y2="32.1446" gradientUnits="userSpaceOnUse">
<stop stop-color="#3B82F6"/>
<stop offset="1" stop-color="#234C90"/>
</linearGradient>
</defs>
</svg>
