<svg width="68" height="68" viewBox="0 0 68 68" fill="none" xmlns="http://www.w3.org/2000/svg">
<path d="M59.5 34C59.5 48.0781 48.0781 59.5 34 59.5C19.9219 59.5 8.5 48.0781 8.5 34C8.5 19.9219 19.9219 8.5 34 8.5C48.0781 8.5 59.5 19.9219 59.5 34ZM0 34C0 52.7797 15.2203 68 34 68C52.7797 68 68 52.7797 68 34C68 15.2203 52.7797 0 34 0C15.2203 0 0 15.2203 0 34ZM34 23.375C39.8703 23.375 44.625 28.1297 44.625 34C44.625 39.8703 39.8703 44.625 34 44.625C28.1297 44.625 23.375 39.8703 23.375 34C23.375 28.1297 28.1297 23.375 34 23.375ZM34 53.125C44.5586 53.125 53.125 44.5586 53.125 34C53.125 23.4414 44.5586 14.875 34 14.875C23.4414 14.875 14.875 23.4414 14.875 34C14.875 44.5586 23.4414 53.125 34 53.125ZM29.75 34C29.75 36.3508 31.6492 38.25 34 38.25C36.3508 38.25 38.25 36.3508 38.25 34C38.25 31.6492 36.3508 29.75 34 29.75C31.6492 29.75 29.75 31.6492 29.75 34Z" fill="url(#paint0_linear_143_171)"/>
<defs>
<linearGradient id="paint0_linear_143_171" x1="68" y1="34.2069" x2="1.49999e-06" y2="34.2069" gradientUnits="userSpaceOnUse">
<stop stop-color="#3B82F6"/>
<stop offset="1" stop-color="#234C90"/>
</linearGradient>
</defs>
</svg>
